<?xml version="1.0" encoding="UTF-8"?>
<svg width="26px" height="25px" viewBox="0 0 26 25" version="1.1" xmlns="http://www.w3.org/2000/svg" xmlns:xlink="http://www.w3.org/1999/xlink">
    <!-- Generator: Sketch 43 (38999) - http://www.bohemiancoding.com/sketch -->
    <title>github</title>
    <desc>Created with Sketch.</desc>
    <defs></defs>
    <g id="Symbols" stroke="none" stroke-width="1" fill="none" fill-rule="evenodd">
        <g id="header" transform="translate(-966.000000, -28.000000)" fill="#F27474">
            <g id="github">
                <path d="M966,40.8128128 C966,46.4747247 969.7245,51.2764014 974.89068,52.9702703 C975.540527,53.0875876 975.777777,52.6918669 975.777777,52.354029 C975.777777,52.049024 975.765869,51.0386637 975.759521,49.9688438 C972.144531,50.743043 971.380426,48.457958 971.380426,48.457958 C970.78852,46.9783534 969.937121,46.5842092 969.937121,46.5842092 C968.75567,45.7896647 970.02675,45.8053053 970.02675,45.8053053 C971.33198,45.8944444 972.019152,47.1253754 972.019152,47.1253754 C973.179199,49.0835836 975.062854,48.5173924 975.802355,48.1889389 C975.920523,47.3631131 976.256949,46.7969219 976.627551,46.4778529 C973.741754,46.1541041 970.706,45.0545546 970.706,40.1449449 C970.706,38.7450951 971.213025,37.6033534 972.042969,36.7063564 C971.910455,36.381031 971.462945,35.0773774 972.171496,33.3139139 C972.171496,33.3139139 973.261719,32.9698198 975.746801,34.6277277 C976.783043,34.3422923 977.894695,34.2015265 978.999975,34.1968218 C980.104467,34.2015265 981.216881,34.3438438 982.254748,34.6292793 C984.735107,32.9698198 985.826904,33.3154655 985.826904,33.3154655 C986.537842,35.0805055 986.090332,36.3825826 985.957031,36.7063564 C986.790148,37.6033534 987.293213,38.7451201 987.293213,40.1449449 C987.293213,45.0670671 984.252686,46.150951 981.35658,46.4684685 C981.824732,46.8657407 982.238904,47.6446446 982.238904,48.8395896 C982.238904,50.5522523 982.221436,51.9333083 982.221436,52.3556056 C982.221436,52.6965716 982.457873,53.0953954 983.116455,52.9702703 C988.278699,51.2732733 992,46.4715966 992,40.8128128 C992,33.736987 986.179199,28 979,28 C971.820801,28 966,33.736987 966,40.8128128 Z"></path>
            </g>
        </g>
    </g>
</svg>