<?xml version="1.0" encoding="UTF-8"?>
<svg width="92px" height="21px" viewBox="0 0 92 21" version="1.1" xmlns="http://www.w3.org/2000/svg" xmlns:xlink="http://www.w3.org/1999/xlink">
    <!-- Generator: Sketch 43 (38999) - http://www.bohemiancoding.com/sketch -->
    <title>logo-small</title>
    <desc>Created with Sketch.</desc>
    <defs></defs>
    <g id="Page-1" stroke="none" stroke-width="1" fill="none" fill-rule="evenodd">
        <g id="Landing-page" transform="translate(-572.000000, -694.000000)" fill="#C9C9C9">
            <g id="comparison" transform="translate(143.000000, 556.000000)">
                <g id="code-versus" transform="translate(0.000000, 138.000000)">
                    <g id="code-container-swal" transform="translate(427.000000, 0.000000)">
                        <path d="M82.3325073,12.9642354 C82.4196501,12.5971006 82.5206114,12.2149954 82.6353915,11.8179184 C82.944604,10.7482103 83.3415601,9.6701612 83.8262716,8.58373886 C84.0769844,7.99874222 84.3611214,7.42211132 84.678691,6.85382886 C84.9962606,6.28554641 85.3305394,5.73398642 85.6815374,5.19913234 C85.3138252,5.23256072 84.9544755,5.2659886 84.6034775,5.29941698 C84.2524795,5.33284536 83.9098438,5.39134415 83.57556,5.47491509 C83.4418465,5.50834347 83.3457413,5.4749156 83.2872417,5.37463046 C83.228742,5.27434532 83.2162065,5.15734774 83.2496349,5.02363423 C83.2830633,4.88992071 83.358276,4.76038768 83.4752754,4.63503125 C83.5922747,4.50967483 83.7510571,4.43864059 83.9516274,4.4219264 C84.3360537,4.38849802 84.7288313,4.35924863 85.1299719,4.33417734 C85.5311124,4.30910606 85.932247,4.27985666 86.3333875,4.24642828 C86.7846707,3.64471745 87.244304,3.09733594 87.7123013,2.60426734 C88.1802986,2.11119874 88.6357534,1.71424269 89.0786795,1.41338727 C89.5216055,1.11253185 89.939454,0.92450004 90.3322374,0.849286186 C90.7250209,0.774072331 91.0718351,0.845106573 91.3726906,1.06239104 C91.589975,1.21281875 91.6150459,1.55127602 91.447904,2.077773 C91.2807621,2.60426998 90.9715543,3.25193512 90.5202711,4.02078785 L92.8769601,3.92050321 C93.0942446,3.90378902 93.2028852,3.99571569 93.2028852,4.19628596 C93.2028852,4.39685624 93.131851,4.60995897 92.9897803,4.83560053 C92.8477097,5.06124209 92.6554994,5.25763088 92.4131437,5.42477278 C92.1707879,5.59191467 91.9242573,5.64205649 91.6735445,5.57519973 C91.4896884,5.54177135 91.2306223,5.49580802 90.8963385,5.43730836 C90.5620547,5.37880869 90.1692772,5.32448839 89.717994,5.27434582 C89.0327123,6.27719721 88.2137292,7.3510678 87.2610204,8.4959898 C86.3083116,9.64091181 85.2804043,10.7482103 84.1772678,11.8179184 C84.0435543,12.3026299 83.9599846,12.7413708 83.9265562,13.1341543 C83.8931278,13.5269378 83.8931278,13.8612165 83.9265562,14.1370007 C83.9599846,14.4127848 84.0226619,14.6258875 84.1145899,14.7763152 C84.206518,14.9267429 84.3026231,15.0103126 84.4029083,15.0270268 C84.5199076,15.043741 84.7079394,14.9935992 84.9670093,14.8765999 C85.2260793,14.7596005 85.5060378,14.6008181 85.8068932,14.4002478 C86.1077486,14.1996776 86.404421,13.9698609 86.6969193,13.710791 C86.9894177,13.451721 87.2359483,13.1968334 87.4365185,12.9461206 C87.6370888,12.6954077 87.8251206,12.5240899 88.0006196,12.4321618 C88.1761186,12.3402338 88.3181871,12.3109844 88.4268293,12.3444128 C88.5354716,12.3778411 88.5897919,12.4697678 88.5897919,12.6201955 C88.5897919,12.7706232 88.5062222,12.9795475 88.3390803,13.2469745 C88.1719384,13.5144015 87.866909,13.8862867 87.423983,14.3626411 C86.9810569,14.8389955 86.4838172,15.3153428 85.932249,15.7916972 C85.3806807,16.2680516 84.8249422,16.6817216 84.2650169,17.0327196 C83.7050915,17.3837176 83.2245658,17.5592139 82.8234252,17.5592139 C82.4222847,17.5592139 82.1590401,17.2959694 82.0336837,16.7694724 C81.9106461,16.2527143 81.9003195,15.5789759 82.0027038,14.7482377 C81.660499,15.1085931 81.2905817,15.4689465 80.8929459,15.8293039 C80.3580919,16.3140154 79.8107104,16.7360424 79.250785,17.0953975 C78.6908596,17.4547526 78.2019769,17.6344274 77.7841222,17.6344274 C77.3996958,17.6344274 77.1406297,17.4087892 77.0069162,16.9575061 C76.8732027,16.506223 76.9066306,15.9045212 77.1072009,15.1523826 C77.3077711,14.4002441 77.6880133,13.5311192 78.2479386,12.544982 C78.807864,11.5588448 79.5808837,10.5225806 80.5670209,9.43615828 C80.3497364,9.46958666 80.1324552,9.47794363 79.9151707,9.46122944 C79.6978863,9.44451525 79.4722481,9.41108737 79.2382494,9.3609448 C78.9541082,9.91251307 78.6031155,10.5392858 78.1852607,11.2412818 C77.767406,11.9432777 77.3077727,12.6118353 76.806347,13.2469745 C76.7060618,13.4308306 76.5347439,13.7024321 76.2923882,14.0617872 C76.0500324,14.4211423 75.7575385,14.8055629 75.4148976,15.2150605 C75.0722567,15.6245582 74.6794791,16.0215142 74.2365531,16.4059406 C73.7936271,16.790367 73.3172798,17.1079318 72.807497,17.3586446 C72.2977142,17.6093575 71.7628682,17.7597829 71.2029428,17.8099255 C70.6430175,17.8600681 70.0622081,17.7430705 69.4604973,17.4589293 C68.9757857,17.2249306 68.63315,16.8530455 68.4325797,16.3432627 C68.2397643,15.8531901 68.1550769,15.2974771 68.1785154,14.6761082 C67.8090517,15.0479714 67.4090331,15.4198321 66.9784525,15.7916972 C66.4268842,16.2680516 65.8711457,16.6817216 65.3112204,17.0327196 C64.751295,17.3837176 64.2707693,17.5592139 63.8696287,17.5592139 C63.4684882,17.5592139 63.2052436,17.2959694 63.0798872,16.7694724 C62.9556777,16.2477925 62.9463365,15.5661279 63.0518634,14.7244583 C62.8688817,14.9189085 62.6734756,15.1200489 62.4656438,15.3278807 C62.0310748,15.7624497 61.5630845,16.1886551 61.0616589,16.6065099 C60.5602332,17.0243646 60.0629935,17.3753573 59.5699249,17.6594986 C59.0768563,17.9436398 58.6046875,18.1358501 58.1534044,18.2361352 C57.7021212,18.3364204 57.3177006,18.2695646 57.000131,18.035566 C56.7661324,17.8684241 56.6365993,17.6260719 56.6115281,17.3085023 C56.5864568,16.9909327 56.6449556,16.6148691 56.7870262,16.1803002 C56.9290968,15.7457312 57.1296641,15.2652055 57.388734,14.7387085 C57.6478039,14.2122115 57.9528333,13.656473 58.3038313,13.0714764 C57.2006948,13.2051899 56.0850394,13.3389014 54.9568315,13.4726149 C53.8286237,13.6063285 52.7547531,13.723326 51.7351876,13.8236112 C51.2671902,14.4587504 50.8660557,15.0813446 50.5317719,15.6914125 C50.1974881,16.3014805 49.9426005,16.8697544 49.7671015,17.3962514 C49.5916026,17.9227484 49.5038544,18.3990956 49.5038544,18.8253075 C49.5038544,19.2515193 49.604138,19.6066905 49.8047083,19.8908317 C48.634715,20.1582588 47.7739471,20.2000436 47.2223789,20.0161875 C46.6708106,19.8323315 46.3783167,19.4729818 46.3448883,18.9381277 C46.3114599,18.4032736 46.5203841,17.7221806 46.9716673,16.8948282 C47.4229504,16.0674758 48.0664371,15.1440307 48.9021465,14.1244651 L46.1693902,14.3751767 C45.8418548,14.4079302 45.6667605,14.3163274 45.6441022,14.1003656 C45.5693692,14.1839565 45.4895751,14.2713817 45.4047198,14.3626411 C44.9617938,14.8389955 44.4645541,15.3153428 43.9129858,15.7916972 C43.3614176,16.2680516 42.8056791,16.6817216 42.2457537,17.0327196 C41.6858284,17.3837176 41.2053026,17.5592139 40.8041621,17.5592139 C40.4030215,17.5592139 40.139777,17.2959694 40.0144205,16.7694724 C39.9084152,16.3242501 39.8860753,15.7625015 39.9474006,15.0842139 C39.9118177,15.1275412 39.8756583,15.1711567 39.8389224,15.2150605 C39.4962815,15.6245582 39.103504,16.0215142 38.6605779,16.4059406 C38.2176519,16.790367 37.7413046,17.1079318 37.2315218,17.3586446 C36.7217391,17.6093575 36.186893,17.7597829 35.6269676,17.8099255 C35.0670423,17.8600681 34.4862329,17.7430705 33.8845221,17.4589293 C33.3998106,17.2249306 33.0571748,16.8530455 32.8566045,16.3432627 C32.6972617,15.9382664 32.6117637,15.4884418 32.6001092,14.9937801 C32.5410231,15.0667082 32.4802731,15.1404683 32.4178592,15.2150605 C32.0752184,15.6245582 31.6824408,16.0215142 31.2395148,16.4059406 C30.7965887,16.790367 30.3202415,17.1079318 29.8104587,17.3586446 C29.3006759,17.6093575 28.7658298,17.7597829 28.2059045,17.8099255 C27.6459791,17.8600681 27.0651697,17.7430705 26.4634589,17.4589293 C25.9787474,17.2249306 25.6361116,16.8530455 25.4355414,16.3432627 C25.2349711,15.8334799 25.1514014,15.2526705 25.1848298,14.6008171 C25.1860826,14.5763874 25.1874821,14.5519049 25.1890283,14.5273696 C25.0616524,14.6174663 24.9307187,14.700448 24.7962268,14.7763152 C24.4703001,14.9601713 24.1401998,15.0813474 23.805916,15.139847 C23.4716322,15.1983467 23.1707813,15.1607403 22.9033543,15.0270268 C22.7194982,14.9434559 22.5732512,14.8055659 22.464609,14.6133527 C22.3559667,14.4211395 22.2682186,14.2080368 22.2013618,13.9740381 C21.8002212,14.492178 21.3949082,14.9685253 20.9854106,15.4030942 C20.5759129,15.8376632 20.1831353,16.2137268 19.8070661,16.5312964 C19.4309968,16.848866 19.0758256,17.0828611 18.7415418,17.2332889 C18.407258,17.3837166 18.1064071,17.4255014 17.8389801,17.3586446 C17.5882672,17.2917879 17.3918784,17.12047 17.2498078,16.8446859 C17.1077372,16.5689017 17.019989,16.2137305 16.9865606,15.7791616 C16.4517066,16.3140157 15.9419314,16.7318642 15.4572199,17.0327196 C14.9725084,17.333575 14.546303,17.4422156 14.1785908,17.3586446 C13.8944496,17.2750737 13.6771683,17.0494355 13.5267406,16.6817233 C13.3763129,16.3140112 13.3052787,15.8543778 13.3136358,15.3028096 C13.3219929,14.7512413 13.3972056,14.1411825 13.5392762,13.4726149 C13.6813468,12.8040473 13.8944496,12.1438468 14.1785908,11.4919933 C14.220147,11.3966586 14.2632225,11.3019496 14.3078173,11.2078665 C14.0116974,11.2203616 13.7179112,11.239857 13.426456,11.2663529 L13.426456,11.4919933 C13.426456,11.5588501 13.4097421,11.6340628 13.3763137,11.7176338 C13.2426002,12.4029156 12.9083214,13.0798301 12.3734673,13.7483977 C11.8386132,14.4169653 11.1993051,15.035381 10.4555236,15.6036635 C9.71174217,16.1719459 8.91365157,16.6691856 8.06122789,17.0953975 C7.20880421,17.5216093 6.40653513,17.8349957 5.65439659,18.035566 C4.90225805,18.2361362 4.24623594,18.302992 3.68631058,18.2361352 C3.12638522,18.1692785 2.77121401,17.9352833 2.6207863,17.5341428 C2.42021602,16.9992887 2.50796421,16.3975869 2.88403348,15.7290193 C3.26010275,15.0604517 3.83673365,14.4044296 4.61394347,13.7609333 C5.3911533,13.117437 6.31041995,12.5240921 7.37177101,11.980881 C8.43312206,11.4376698 9.54042053,11.0239998 10.6936996,10.7398586 C10.6435571,10.3220038 10.5265595,9.92086928 10.3427034,9.53644292 C10.1588473,9.15201655 9.92903065,8.81773777 9.65324651,8.53359654 C9.37746238,8.24945531 9.05989754,8.04470956 8.70054246,7.91935314 C8.34118737,7.79399671 7.96930223,7.78981823 7.58487586,7.90681756 C6.79930894,8.14081621 6.19342865,8.27034924 5.76721681,8.29542053 C5.34100497,8.32049181 5.09029588,8.22438666 5.01508202,8.00710219 C4.93986817,7.78981773 5.02761635,7.44718197 5.2783292,6.97918466 C5.52904205,6.51118734 5.94689052,5.8927716 6.53188717,5.12391886 C6.94974191,4.55563641 7.48458797,3.97482702 8.13644137,3.38147328 C8.78829477,2.78811955 9.49028022,2.24491652 10.2424188,1.75184792 C10.9945573,1.25877932 11.7633985,0.857644785 12.5489654,0.548432273 C13.3345323,0.239219761 14.0783026,0.084615824 14.7802986,0.084615824 C15.3318669,0.084615824 15.7580723,0.235041276 16.0589277,0.535896693 C16.3597832,0.83675211 16.547815,1.1961018 16.6230288,1.61395655 C16.6982427,2.03181129 16.6606363,2.46637371 16.5102086,2.91765684 C16.3597809,3.36893996 16.1174288,3.74500359 15.783145,4.04585901 C15.699574,3.62800426 15.5157207,3.32715336 15.2315795,3.14329727 C14.9474383,2.95944118 14.6215164,2.85497906 14.2538043,2.82990778 C13.8860921,2.80483649 13.5225639,2.83408589 13.1632088,2.91765684 C12.8038537,3.00122778 12.5155383,3.09315445 12.2982538,3.19343959 C11.9305417,3.37729568 11.5335856,3.5903984 11.1073738,3.83275415 C10.6811619,4.07510991 10.250778,4.34253293 9.81620905,4.63503125 C9.38164011,4.92752958 8.96379164,5.23255897 8.56265108,5.55012857 C8.16151052,5.86769818 7.8105178,6.17690605 7.50966238,6.47776147 C7.12523602,6.86218784 6.92466875,7.07946904 6.90795456,7.12961161 C6.89124037,7.17975418 7.10016461,7.13796934 7.53473354,7.00425582 C9.15600996,6.51954431 10.4764111,6.58640007 11.4959767,7.20482509 C12.5155423,7.82325012 13.142315,8.86787131 13.3763137,10.33872 C13.6771691,10.3052916 13.97802,10.2885777 14.2788754,10.2885777 C14.4522293,10.2885777 14.6255817,10.2913523 14.7989343,10.2969015 C14.9375435,10.068637 15.0859369,9.84440076 15.2441151,9.62419197 C15.6703269,9.03083824 16.1592096,8.53359855 16.7107779,8.13245799 C17.0784901,7.86503095 17.4127688,7.68535611 17.7136243,7.59342806 C18.0144797,7.50150002 18.2442963,7.47225063 18.4030811,7.50567901 C18.5618659,7.53910738 18.6329002,7.62685557 18.616186,7.76892618 C18.5994718,7.91099679 18.4574033,8.09067164 18.1899763,8.30795611 C17.5548371,8.8093818 17.0325265,9.41108361 16.6230288,10.1130796 C16.2135312,10.8150756 15.9126803,11.4878116 15.7204671,12.1313079 C15.5282539,12.7748042 15.4405057,13.3305427 15.4572199,13.79854 C15.4739341,14.2665373 15.5825747,14.5339604 15.783145,14.6008171 C16.1007146,14.6843881 16.543634,14.4420359 17.1119164,13.8737535 C17.1954874,13.4224704 17.3208419,12.9503016 17.4879838,12.457233 C17.6551257,11.9641644 17.86405,11.4794602 18.1147628,11.0031057 C18.3654757,10.5267513 18.6496126,10.075475 18.9671822,9.64926313 C19.2847518,9.22305129 19.6441015,8.85116615 20.0452421,8.53359654 C20.4463826,8.21602693 20.7931969,7.98621027 21.0856952,7.84413966 C21.3781935,7.70206904 21.6121887,7.63939177 21.7876877,7.65610596 C21.9631867,7.67282015 22.0760057,7.75638985 22.1261483,7.90681756 C22.1762909,8.05724526 22.15122,8.25781253 22.0509348,8.50852538 C21.7667936,9.19380716 21.39073,9.86654321 20.9227327,10.5267537 C20.4547353,11.1869642 19.8697475,11.9934118 19.1677515,12.9461206 C19.1343231,13.330547 19.1343231,13.6898967 19.1677515,14.0241804 C19.2011799,14.3584642 19.2847496,14.5506745 19.4184631,14.6008171 C19.6190334,14.6676739 19.8906349,14.5799257 20.2332758,14.3375699 C20.5759167,14.0952142 20.9394448,13.723329 21.3238712,13.2219033 C21.7082976,12.7204777 22.0885397,12.0895265 22.464609,11.3290308 C22.8406782,10.5685352 23.1707785,9.69523186 23.4549198,8.70909466 C23.5384907,8.39152505 23.7265225,8.14081596 24.0190208,7.95695987 C24.3115192,7.77310379 24.6123701,7.64774924 24.9215826,7.58089248 C25.2307951,7.51403572 25.4982181,7.50150027 25.7238597,7.54328574 C25.9495012,7.58507122 26.0456064,7.65610546 26.012178,7.7563906 C25.7948936,8.25781629 25.5065781,8.83862568 25.147223,9.49883618 C24.7878679,10.1590467 24.3825549,10.8484967 23.9312718,11.5672068 C23.7808441,11.8680622 23.6847389,12.1856271 23.6429535,12.5199109 C23.601168,12.8541947 23.7056301,13.1299747 23.9563429,13.3472591 C24.1569132,13.514401 24.4159793,13.5561859 24.7335489,13.4726149 C25.0370632,13.3927427 25.2795044,13.2289021 25.460879,12.9810884 C25.5022378,12.8331672 25.5481127,12.68362 25.5985039,12.5324465 C25.8408596,11.8053792 26.154246,11.1159292 26.5386724,10.4640758 C26.9063845,9.84565079 27.33259,9.28155534 27.8173015,8.77177255 C28.302013,8.26198976 28.8076097,7.86503371 29.3341066,7.58089248 C29.8606036,7.29675126 30.3912712,7.1463258 30.9261253,7.12961161 C31.4609793,7.11289742 31.9707545,7.28003682 32.455466,7.6310348 C32.806464,7.88174765 33.0571731,8.20349098 33.2076008,8.59627444 C33.3580285,8.9890579 33.3789209,9.40690638 33.2702787,9.84983241 C33.1616364,10.2927584 32.9109273,10.7314993 32.5181439,11.1660683 C32.1253604,11.6006372 31.5696219,11.9934148 30.8509118,12.3444128 C30.5333422,12.4948405 30.2074204,12.5993026 29.8731366,12.6578023 C29.5388528,12.7163019 29.2212879,12.7497298 28.9204325,12.7580869 C28.6195771,12.766444 28.3396186,12.7539085 28.0805487,12.7204802 C27.8214787,12.6870518 27.600019,12.6536239 27.4161629,12.6201955 C27.3660204,12.8876226 27.3158786,13.175938 27.265736,13.4851505 C27.2155934,13.794363 27.1905225,14.0910355 27.1905225,14.3751767 C27.1905225,14.6593179 27.2281289,14.9142055 27.3033427,15.139847 C27.3785566,15.3654886 27.5164466,15.5284495 27.7170169,15.6287346 C28.1515858,15.8627333 28.63629,15.9003397 29.1711441,15.7415549 C29.7059982,15.5827701 30.2199518,15.3404179 30.7130204,15.0144912 C31.206089,14.6885645 31.6531869,14.3250364 32.0543274,13.9238958 C32.4357233,13.5424999 32.7113503,13.2291003 32.8812156,12.9836885 C32.9227635,12.8349198 32.9688806,12.6845058 33.0195671,12.5324465 C33.2619228,11.8053792 33.5753092,11.1159292 33.9597355,10.4640758 C34.3274477,9.84565079 34.7536532,9.28155534 35.2383647,8.77177255 C35.7230762,8.26198976 36.2286728,7.86503371 36.7551698,7.58089248 C37.2816668,7.29675126 37.8123344,7.1463258 38.3471884,7.12961161 C38.8820425,7.11289742 39.3918177,7.28003682 39.8765292,7.6310348 C40.2275272,7.88174765 40.4782362,8.20349098 40.6286639,8.59627444 C40.7790917,8.9890579 40.7999841,9.40690638 40.6913418,9.84983241 C40.5826996,10.2927584 40.3319905,10.7314993 39.9392071,11.1660683 C39.5464236,11.6006372 38.9906851,11.9934148 38.271975,12.3444128 C37.9544054,12.4948405 37.6284835,12.5993026 37.2941997,12.6578023 C36.959916,12.7163019 36.6423511,12.7497298 36.3414957,12.7580869 C36.0406403,12.766444 35.7606818,12.7539085 35.5016119,12.7204802 C35.2425419,12.6870518 35.0210822,12.6536239 34.8372261,12.6201955 C34.7870836,12.8876226 34.7369417,13.175938 34.6867992,13.4851505 C34.6366566,13.794363 34.6115857,14.0910355 34.6115857,14.3751767 C34.6115857,14.6593179 34.6491921,14.9142055 34.7244059,15.139847 C34.7996198,15.3654886 34.9375098,15.5284495 35.13808,15.6287346 C35.572649,15.8627333 36.0573532,15.9003397 36.5922073,15.7415549 C37.1270614,15.5827701 37.641015,15.3404179 38.1340836,15.0144912 C38.6271522,14.6885645 39.0742501,14.3250364 39.4753906,13.9238958 C39.8641313,13.5351551 40.1429901,13.2170548 40.3119748,12.9695859 C40.3994062,12.6008134 40.5007906,12.2169248 40.6161284,11.8179184 C40.9253409,10.7482103 41.3222969,9.6701612 41.8070084,8.58373886 C42.0577213,7.99874222 42.3418583,7.42211132 42.6594279,6.85382886 C42.9769975,6.28554641 43.3112762,5.73398642 43.6622742,5.19913234 C43.2945621,5.23256072 42.9352124,5.2659886 42.5842144,5.29941698 C42.2332164,5.33284536 41.8905806,5.39134415 41.5562968,5.47491509 C41.4225833,5.50834347 41.3264782,5.4749156 41.2679785,5.37463046 C41.2094788,5.27434532 41.1969434,5.15734774 41.2303718,5.02363423 C41.2638002,4.88992071 41.3390129,4.76038768 41.4560122,4.63503125 C41.5730115,4.50967483 41.731794,4.43864059 41.9323642,4.4219264 C42.3167906,4.38849802 42.7095682,4.35924863 43.1107087,4.33417734 C43.5118493,4.30910606 43.9129838,4.27985666 44.3141244,4.24642828 C44.7654075,3.64471745 45.2250408,3.09733594 45.6930381,2.60426734 C46.1610355,2.11119874 46.6164903,1.71424269 47.0594163,1.41338727 C47.5023424,1.11253185 47.9201908,0.92450004 48.3129743,0.849286186 C48.7057578,0.774072331 49.052572,0.845106573 49.3534274,1.06239104 C49.5707119,1.21281875 49.5957828,1.55127602 49.4286409,2.077773 C49.261499,2.60426998 48.9522911,3.25193512 48.501008,4.02078785 L50.857697,3.92050321 C51.0749814,3.90378902 51.1836221,3.99571569 51.1836221,4.19628596 C51.1836221,4.39685624 51.1125878,4.60995897 50.9705172,4.83560053 C50.8284466,5.06124209 50.6362363,5.25763088 50.3938805,5.42477278 C50.1515248,5.59191467 49.9049942,5.64205649 49.6542813,5.57519973 C49.4704252,5.54177135 49.2113592,5.49580802 48.8770754,5.43730836 C48.5427916,5.37880869 48.150014,5.32448839 47.6987309,5.27434582 C47.0134491,6.27719721 46.1944661,7.3510678 45.2417573,8.4959898 C44.2890485,9.64091181 43.2611412,10.7482103 42.1580047,11.8179184 C42.0242912,12.3026299 41.9407215,12.7413708 41.9072931,13.1341543 C41.8738647,13.5269378 41.8738647,13.8612165 41.9072931,14.1370007 C41.9407215,14.4127848 42.0033987,14.6258875 42.0953268,14.7763152 C42.1872548,14.9267429 42.28336,15.0103126 42.3836451,15.0270268 C42.5006444,15.043741 42.6886762,14.9935992 42.9477462,14.8765999 C43.2068161,14.7596005 43.4867746,14.6008181 43.78763,14.4002478 C44.0884854,14.1996776 44.3851579,13.9698609 44.6776562,13.710791 C44.9701545,13.451721 45.2166851,13.1968334 45.4172554,12.9461206 C45.6178257,12.6954077 45.8058575,12.5240899 45.9813565,12.4321618 C46.1568555,12.3402338 46.298924,12.3109844 46.4075662,12.3444128 C46.5162084,12.3778411 46.5705287,12.4697678 46.5705287,12.6201955 C46.5705287,12.6400659 46.5690706,12.660957 46.5661542,12.6828687 C46.6199117,12.6443124 46.6756907,12.6067072 46.7334913,12.5700532 C47.0761322,12.3527687 47.4480173,12.269199 47.8491579,12.3193416 C48.0831565,12.35277 48.4132568,12.3820194 48.8394686,12.4070907 C49.2656805,12.432162 49.7629202,12.4530544 50.3312026,12.4697686 L51.9357568,10.8401432 C52.9553224,9.854006 54.0166575,8.87206208 55.1197941,7.89428198 C56.2229306,6.91650187 57.3176936,5.98887825 58.404116,5.11138328 C59.4905383,4.23388832 60.5435165,3.43997621 61.563082,2.72962314 C62.5826476,2.01927007 63.5102712,1.43846069 64.3459807,0.987177562 C65.1816902,0.535894437 65.8962111,0.235043533 66.4895649,0.084615824 C67.0829186,-0.0658118845 67.5049456,-0.0156700671 67.7556584,0.23504278 C67.9729429,0.452327248 68.0021923,0.820033909 67.8434075,1.33817379 C67.6846227,1.85631368 67.4004857,2.46219397 66.9909881,3.15583285 C66.5814904,3.84947173 66.0884292,4.60577747 65.5117896,5.42477278 C64.9351501,6.24376808 64.3418053,7.07528655 63.7317373,7.91935314 C63.1216694,8.76341972 62.5283246,9.59493819 61.951685,10.4139335 C61.3750455,11.2329288 60.8903412,11.9808776 60.4975578,12.6578023 C60.1047743,13.3347269 59.8373513,13.9155363 59.6952807,14.4002478 C59.5532101,14.8849593 59.6075304,15.2192381 59.8582432,15.4030942 C59.9585283,15.4866652 60.1549171,15.4615943 60.4474154,15.3278807 C60.7399138,15.1941672 61.0658356,15.0019569 61.4251907,14.7512441 C61.7845457,14.5005312 62.1438954,14.2122158 62.5032505,13.8862891 C62.8587432,13.5638655 63.1528934,13.2537141 63.3857098,12.9558259 C63.4743413,12.5912666 63.5771481,12.2119646 63.6941306,11.8179184 C64.0117002,10.7482103 64.4128347,9.6701612 64.8975462,8.58373886 C65.2151158,7.84831451 65.5744655,7.12543664 65.9756061,6.41508357 C66.3767467,5.7047305 66.7987736,5.03199445 67.2416996,4.39685524 C67.6846257,3.76171603 68.135902,3.18926361 68.5955423,2.67948082 C69.0551825,2.16969803 69.5022803,1.76020652 69.9368493,1.45099401 C70.3714182,1.1417815 70.7850882,0.945392714 71.1778717,0.861821765 C71.5706551,0.778250816 71.9258263,0.845106573 72.2433959,1.06239104 C72.6612507,1.36324646 72.7406419,1.89809251 72.481572,2.66694524 C72.222502,3.43579797 71.7377978,4.33835069 71.0274447,5.37463046 C70.3170916,6.41091023 69.4354314,7.53910112 68.3824374,8.75923698 C67.3294434,9.97937283 66.2263235,11.1911334 65.0730444,12.3945551 C64.8891883,13.2469788 64.8557604,13.8904654 64.9727597,14.3250344 C65.089759,14.7596033 65.2568984,14.9935984 65.4741829,15.0270268 C65.5911822,15.043741 65.7750356,14.9935992 66.0257484,14.8765999 C66.2764613,14.7596005 66.5522413,14.6008181 66.8530967,14.4002478 C67.1539521,14.1996776 67.4506245,13.9698609 67.7431228,13.710791 C68.0245373,13.4615381 68.2634018,13.2161567 68.459723,12.9746399 C68.5006101,12.8288213 68.5458832,12.6814236 68.5955423,12.5324465 C68.837898,11.8053792 69.1512844,11.1159292 69.5357107,10.4640758 C69.9034229,9.84565079 70.3296284,9.28155534 70.8143399,8.77177255 C71.2990514,8.26198976 71.804648,7.86503371 72.331145,7.58089248 C72.857642,7.29675126 73.3883096,7.1463258 73.9231636,7.12961161 C74.4580177,7.11289742 74.9677928,7.28003682 75.4525043,7.6310348 C75.8035023,7.88174765 76.0542114,8.20349098 76.2046391,8.59627444 C76.3550668,8.9890579 76.3759593,9.40690638 76.267317,9.84983241 C76.1586748,10.2927584 75.9079657,10.7314993 75.5151822,11.1660683 C75.1223988,11.6006372 74.5666603,11.9934148 73.8479501,12.3444128 C73.5303805,12.4948405 73.2044587,12.5993026 72.8701749,12.6578023 C72.5358911,12.7163019 72.2183263,12.7497298 71.9174709,12.7580869 C71.6166155,12.766444 71.336657,12.7539085 71.077587,12.7204802 C70.8185171,12.6870518 70.5970574,12.6536239 70.4132013,12.6201955 C70.3630587,12.8876226 70.3129169,13.175938 70.2627744,13.4851505 C70.2126318,13.794363 70.1875609,14.0910355 70.1875609,14.3751767 C70.1875609,14.6593179 70.2251672,14.9142055 70.3003811,15.139847 C70.3755949,15.3654886 70.5134849,15.5284495 70.7140552,15.6287346 C71.1486242,15.8627333 71.6333284,15.9003397 72.1681825,15.7415549 C72.7030365,15.5827701 73.2169902,15.3404179 73.7100588,15.0144912 C74.2031274,14.6885645 74.6502252,14.3250364 75.0513658,13.9238958 C75.3545372,13.6207244 75.5908768,13.3605175 75.7603885,13.1432709 C75.7996392,13.0794539 75.8474381,13.0137372 75.9037852,12.9461206 C76.0098064,12.7870888 76.1158265,12.6566399 76.221847,12.5547725 C76.67115,11.9874674 77.0623714,11.4284636 77.3955192,10.8777499 C77.8050169,10.2008253 78.1351172,9.60330193 78.38583,9.08516205 C77.9178327,8.8344492 77.6587666,8.49181345 77.6086241,8.05724451 C77.5584815,7.62267558 77.6295157,7.20900558 77.8217289,6.81622212 C78.0139421,6.42343866 78.2897221,6.10587382 78.6490772,5.86351806 C79.0084323,5.62116231 79.3636035,5.56684201 79.7146014,5.70055553 C79.9653143,5.78412648 80.1408107,5.90948102 80.2410958,6.07662292 C80.3413809,6.24376482 80.3915227,6.43179663 80.3915227,6.64072401 C80.3915227,6.84965138 80.3497379,7.07111107 80.266167,7.30510973 C80.182596,7.53910839 80.0823124,7.76474657 79.965313,7.98203103 C80.0655982,8.09903036 80.1951312,8.16588612 80.353916,8.18260031 C80.5127008,8.1993145 80.6798402,8.19513601 80.8553392,8.17006473 C81.0308382,8.14499344 81.2021561,8.09903011 81.369298,8.03217335 C81.5364399,7.96531659 81.6701514,7.90681781 81.7704365,7.85667524 C81.8205791,7.83996105 81.8957918,7.85667499 81.996077,7.90681756 C82.0963621,7.95696013 82.1924672,8.02381588 82.2843953,8.10738683 C82.3763233,8.19095778 82.4473576,8.27870596 82.4975001,8.370634 C82.5476427,8.46256205 82.5476427,8.53359629 82.4975001,8.58373886 C82.2635015,8.81773752 82.0127924,9.12276691 81.7453654,9.49883618 C81.4779383,9.87490545 81.2146938,10.2802185 80.9556238,10.7147874 C80.6965539,11.1493563 80.4583803,11.5880972 80.2410958,12.0310233 C80.0238113,12.4739493 79.839958,12.8876193 79.6895303,13.2720457 C79.5391026,13.656472 79.4388189,13.9907508 79.3886764,14.274892 C79.3385338,14.5590333 79.3636047,14.7512436 79.4638899,14.8515287 C79.5474608,14.9350997 79.7062432,14.9309212 79.9402419,14.8389931 C80.1742405,14.7470651 80.4374851,14.6008181 80.7299834,14.4002478 C81.0224817,14.1996776 81.3149757,13.9698609 81.607474,13.710791 C81.8929305,13.457958 82.134606,13.2091085 82.3325073,12.9642354 Z M5.20311572,16.0298732 C5.33682924,16.1970151 5.55411045,16.2847633 5.85496586,16.2931204 C6.15582128,16.3014775 6.49427855,16.2388002 6.87034782,16.1050867 C7.24641709,15.9713732 7.64337315,15.7749844 8.06122789,15.5159144 C8.47908264,15.2568445 8.87186021,14.9392796 9.23957238,14.5632104 C9.60728456,14.1871411 9.92902789,13.7651141 10.204812,13.2971168 C10.4805962,12.8291195 10.6769849,12.3109874 10.7939843,11.7427049 C9.72427612,12.0435604 8.81754492,12.4154455 8.07376347,12.8583715 C7.32998202,13.3012976 6.7324587,13.744217 6.28117557,14.187143 C5.82989245,14.630069 5.51650609,15.0228466 5.3410071,15.3654875 C5.1655081,15.7081284 5.11954477,15.9295881 5.20311572,16.0298732 Z M31.0765522,9.21051784 C30.8759819,9.06009014 30.6210944,9.01830529 30.3118819,9.08516205 C30.0026693,9.15201881 29.6851045,9.30244426 29.3591778,9.53644292 C29.0332511,9.77044157 28.7240432,10.0796494 28.4315449,10.4640758 C28.1390466,10.8485022 27.9175869,11.2747076 27.7671592,11.7427049 C27.9343011,11.7594191 28.1808317,11.7677761 28.5067584,11.7677761 C28.8326851,11.7677761 29.2379981,11.6758494 29.7227096,11.4919933 C30.1907069,11.3081373 30.5500566,11.10757 30.8007695,10.8902855 C31.0514823,10.6730011 31.2228002,10.4557198 31.3147282,10.2384354 C31.4066563,10.0211509 31.4233702,9.82058364 31.3648706,9.63672755 C31.3063709,9.45287147 31.2102657,9.31080298 31.0765522,9.21051784 Z M38.4976154,9.21051784 C38.2970451,9.06009014 38.0421575,9.01830529 37.732945,9.08516205 C37.4237325,9.15201881 37.1061677,9.30244426 36.780241,9.53644292 C36.4543143,9.77044157 36.1451064,10.0796494 35.8526081,10.4640758 C35.5601098,10.8485022 35.3386501,11.2747076 35.1882224,11.7427049 C35.3553643,11.7594191 35.6018949,11.7677761 35.9278216,11.7677761 C36.2537483,11.7677761 36.6590613,11.6758494 37.1437728,11.4919933 C37.6117701,11.3081373 37.9711198,11.10757 38.2218326,10.8902855 C38.4725455,10.6730011 38.6438634,10.4557198 38.7357914,10.2384354 C38.8277195,10.0211509 38.8444334,9.82058364 38.7859337,9.63672755 C38.7274341,9.45287147 38.6313289,9.31080298 38.4976154,9.21051784 Z M43.1357799,8.78430813 C43.0522089,8.96816422 42.9811747,9.11858967 42.922675,9.235589 L42.7597125,9.56151408 C42.7095699,9.66179921 42.6636066,9.77043982 42.6218211,9.88743915 C42.5800356,10.0044385 42.5340723,10.146507 42.4839297,10.3136489 C43.3196392,9.39436842 44.0801235,8.4918157 44.7654052,7.60596364 C45.450687,6.72011158 46.0273179,5.9178425 46.4953152,5.19913234 C46.294745,5.18241815 46.0858207,5.1698827 45.8685363,5.1615256 C45.6512518,5.15316851 45.4339706,5.14899002 45.2166861,5.14899002 C44.4812618,6.13512722 43.7876333,7.34688781 43.1357799,8.78430813 Z M47.5483039,3.09315495 C47.113735,3.19344009 46.6123168,3.54443281 46.0440344,4.14614365 C46.2446047,4.12942946 46.4326365,4.116894 46.6081355,4.10853691 C46.7836345,4.10017981 46.9633093,4.09600133 47.1471654,4.09600133 C47.2641647,3.89543105 47.3519129,3.71157772 47.4104126,3.54443582 C47.4689122,3.37729392 47.5148756,3.22686847 47.5483039,3.09315495 Z M52.8132474,12.4697686 C53.8160988,12.4363402 54.8565415,12.3736629 55.9346068,12.2817349 C57.012672,12.1898068 58.0614717,12.0435599 59.0810373,11.8429896 C59.6994623,10.8735666 60.3513059,9.89997962 61.0365877,8.92219951 C61.7218695,7.94441941 62.3319283,7.04604518 62.8667823,6.22704988 C63.4016364,5.40805457 63.8111279,4.71024762 64.0952691,4.13360807 C64.3794104,3.55696852 64.4295522,3.18508337 64.2456961,3.01794147 C64.0952684,2.88422795 63.8362023,2.89258492 63.4684902,3.04301263 C63.100778,3.19344034 62.6578586,3.44414943 62.1397187,3.79514741 C61.6215788,4.1461454 61.0449479,4.5848863 60.4098087,5.11138328 C59.7746695,5.63788026 59.1186474,6.20615419 58.4417227,6.81622212 C57.764798,7.42629005 57.083705,8.06559822 56.3984232,8.73416582 C55.7131414,9.40273341 55.0529408,10.054577 54.4178016,10.6897162 C54.1336604,10.9905717 53.8578804,11.2872441 53.5904534,11.5797424 C53.3230263,11.8722407 53.0639603,12.1689131 52.8132474,12.4697686 Z M66.2012465,8.78430813 C66.0341046,9.15202031 65.8836792,9.50719152 65.7499657,9.84983241 C65.6162521,10.1924733 65.5076115,10.5309306 65.4240406,10.8652144 C66.0257514,10.1465042 66.6316317,9.41109088 67.2416996,8.65895234 C67.8517676,7.90681379 68.3949706,7.17975744 68.871325,6.47776147 C69.3476794,5.7757655 69.7321,5.1155649 70.0245983,4.49713988 C70.3170967,3.87871485 70.4549867,3.32715486 70.4382725,2.84244336 C70.1374171,2.90930012 69.8156737,3.10986739 69.4730328,3.44415118 C69.1303919,3.77843498 68.7752207,4.20881891 68.4075086,4.73531589 C68.0397964,5.26181287 67.6679112,5.87187165 67.291842,6.56551053 C66.9157727,7.25914941 66.5522445,7.99874121 66.2012465,8.78430813 Z M74.0735906,9.21051784 C73.8730203,9.06009014 73.6181327,9.01830529 73.3089202,9.08516205 C72.9997077,9.15201881 72.6821429,9.30244426 72.3562162,9.53644292 C72.0302895,9.77044157 71.7210816,10.0796494 71.4285833,10.4640758 C71.1360849,10.8485022 70.9146252,11.2747076 70.7641975,11.7427049 C70.9313394,11.7594191 71.17787,11.7677761 71.5037967,11.7677761 C71.8297234,11.7677761 72.2350365,11.6758494 72.719748,11.4919933 C73.1877453,11.3081373 73.547095,11.10757 73.7978078,10.8902855 C74.0485207,10.6730011 74.2198386,10.4557198 74.3117666,10.2384354 C74.4036946,10.0211509 74.4204086,9.82058364 74.3619089,9.63672755 C74.3034093,9.45287147 74.2073041,9.31080298 74.0735906,9.21051784 Z M85.155043,8.78430813 C85.0714721,8.96816422 85.0004378,9.11858967 84.9419382,9.235589 L84.7789756,9.56151408 C84.7288331,9.66179921 84.6828697,9.77043982 84.6410843,9.88743915 C84.5992988,10.0044385 84.5533355,10.146507 84.5031929,10.3136489 C85.3389024,9.39436842 86.0993866,8.4918157 86.7846684,7.60596364 C87.4699502,6.72011158 88.0465811,5.9178425 88.5145784,5.19913234 C88.3140081,5.18241815 88.1050839,5.1698827 87.8877994,5.1615256 C87.6705149,5.15316851 87.4532337,5.14899002 87.2359493,5.14899002 C86.5005249,6.13512722 85.8068964,7.34688781 85.155043,8.78430813 Z M89.5675671,3.09315495 C89.1329982,3.19344009 88.63158,3.54443281 88.0632975,4.14614365 C88.2638678,4.12942946 88.4518996,4.116894 88.6273986,4.10853691 C88.8028976,4.10017981 88.9825724,4.09600133 89.1664285,4.09600133 C89.2834279,3.89543105 89.371176,3.71157772 89.4296757,3.54443582 C89.4881754,3.37729392 89.5341387,3.22686847 89.5675671,3.09315495 Z" id="logo-small"></path>
                    </g>
                </g>
            </g>
        </g>
    </g>
</svg>