<?xml version="1.0" encoding="UTF-8"?>
<svg width="23px" height="20px" viewBox="0 0 23 20" version="1.1" xmlns="http://www.w3.org/2000/svg" xmlns:xlink="http://www.w3.org/1999/xlink">
    <!-- Generator: Sketch 43 (38999) - http://www.bohemiancoding.com/sketch -->
    <title>heart-icon</title>
    <desc>Created with Sketch.</desc>
    <defs></defs>
    <g id="Page-1" stroke="none" stroke-width="1" fill="none" fill-rule="evenodd">
        <g id="Landing-page" transform="translate(-462.000000, -1815.000000)" fill="#F38270">
            <g id="footer" transform="translate(0.000000, 1757.000000)">
                <g id="text" transform="translate(333.000000, 58.000000)">
                    <path d="M135.5,0 L137.5,0 L137.5,2 L135.5,2 L135.5,0 L135.5,0 Z M133.5,0 L135.5,0 L135.5,2 L133.5,2 L133.5,0 L133.5,0 Z M137.5,2 L139.5,2 L139.5,4 L137.5,4 L137.5,2 L137.5,2 Z M135.5,2 L137.5,2 L137.5,4 L135.5,4 L135.5,2 L135.5,2 Z M133.5,2 L135.5,2 L135.5,4 L133.5,4 L133.5,2 L133.5,2 Z M137.5,4 L139.5,4 L139.5,6 L137.5,6 L137.5,4 L137.5,4 Z M135.5,4 L137.5,4 L137.5,6 L135.5,6 L135.5,4 L135.5,4 Z M133.5,4 L135.5,4 L135.5,6 L133.5,6 L133.5,4 L133.5,4 Z M135.5,6 L137.5,6 L137.5,8 L135.5,8 L135.5,6 L135.5,6 Z M133.5,6 L135.5,6 L135.5,8 L133.5,8 L133.5,6 L133.5,6 Z M131.5,6 L133.5,6 L133.5,8 L131.5,8 L131.5,6 L131.5,6 Z M135.5,8 L137.5,8 L137.5,10 L135.5,10 L135.5,8 L135.5,8 Z M133.5,8 L135.5,8 L135.5,10 L133.5,10 L133.5,8 L133.5,8 Z M131.5,8 L133.5,8 L133.5,10 L131.5,10 L131.5,8 L131.5,8 Z M137.5,10 L139.5,10 L139.5,12 L137.5,12 L137.5,10 L137.5,10 Z M135.5,10 L137.5,10 L137.5,12 L135.5,12 L135.5,10 L135.5,10 Z M133.5,10 L135.5,10 L135.5,12 L133.5,12 L133.5,10 L133.5,10 Z M139.5,12 L141.5,12 L141.5,14 L139.5,14 L139.5,12 L139.5,12 Z M139.5,10 L141.5,10 L141.5,12 L139.5,12 L139.5,10 L139.5,10 Z M137.5,12 L139.5,12 L139.5,14 L137.5,14 L137.5,12 L137.5,12 Z M135.5,12 L137.5,12 L137.5,14 L135.5,14 L135.5,12 L135.5,12 Z M141.5,14 L143.5,14 L143.5,16 L141.5,16 L141.5,14 L141.5,14 Z M139.5,14 L141.5,14 L141.5,16 L139.5,16 L139.5,14 L139.5,14 Z M139.5,16 L141.5,16 L141.5,18 L139.5,18 L139.5,16 L139.5,16 Z M137.5,14 L139.5,14 L139.5,16 L137.5,16 L137.5,14 L137.5,14 Z M145.5,10 L147.5,10 L147.5,12 L145.5,12 L145.5,10 L145.5,10 Z M143.5,10 L145.5,10 L145.5,12 L143.5,12 L143.5,10 L143.5,10 Z M141.5,10 L143.5,10 L143.5,12 L141.5,12 L141.5,10 L141.5,10 Z M143.5,12 L145.5,12 L145.5,14 L143.5,14 L143.5,12 L143.5,12 Z M141.5,12 L143.5,12 L143.5,14 L141.5,14 L141.5,12 L141.5,12 Z M147.5,8 L149.5,8 L149.5,10 L147.5,10 L147.5,8 L147.5,8 Z M145.5,8 L147.5,8 L147.5,10 L145.5,10 L145.5,8 L145.5,8 Z M143.5,8 L145.5,8 L145.5,10 L143.5,10 L143.5,8 L143.5,8 Z M147.5,6 L149.5,6 L149.5,8 L147.5,8 L147.5,6 L147.5,6 Z M145.5,6 L147.5,6 L147.5,8 L145.5,8 L145.5,6 L145.5,6 Z M143.5,6 L145.5,6 L145.5,8 L143.5,8 L143.5,6 L143.5,6 Z M147.5,4 L149.5,4 L149.5,6 L147.5,6 L147.5,4 L147.5,4 Z M145.5,4 L147.5,4 L147.5,6 L145.5,6 L145.5,4 L145.5,4 Z M143.5,4 L145.5,4 L145.5,6 L143.5,6 L143.5,4 L143.5,4 Z M145.5,2 L147.5,2 L147.5,4 L145.5,4 L145.5,2 L145.5,2 Z M143.5,2 L145.5,2 L145.5,4 L143.5,4 L143.5,2 L143.5,2 Z M141.5,2 L143.5,2 L143.5,4 L141.5,4 L141.5,2 L141.5,2 Z M141.5,6 L143.5,6 L143.5,8 L141.5,8 L141.5,6 L141.5,6 Z M139.5,6 L141.5,6 L141.5,8 L139.5,8 L139.5,6 L139.5,6 Z M141.5,4 L143.5,4 L143.5,6 L141.5,6 L141.5,4 L141.5,4 Z M139.5,4 L141.5,4 L141.5,6 L139.5,6 L139.5,4 L139.5,4 Z M137.5,6 L139.5,6 L139.5,8 L137.5,8 L137.5,6 L137.5,6 Z M141.5,8 L143.5,8 L143.5,10 L141.5,10 L141.5,8 L141.5,8 Z M139.5,8 L141.5,8 L141.5,10 L139.5,10 L139.5,8 L139.5,8 Z M137.5,8 L139.5,8 L139.5,10 L137.5,10 L137.5,8 L137.5,8 Z M131.5,2 L133.5,2 L133.5,4 L131.5,4 L131.5,2 L131.5,2 Z M131.5,4 L133.5,4 L133.5,6 L131.5,6 L131.5,4 L131.5,4 Z M129.5,4 L131.5,4 L131.5,6 L129.5,6 L129.5,4 L129.5,4 Z M129.5,6 L131.5,6 L131.5,8 L129.5,8 L129.5,6 L129.5,6 Z M129.5,8 L131.5,8 L131.5,10 L129.5,10 L129.5,8 L129.5,8 Z M131.5,10 L133.5,10 L133.5,12 L131.5,12 L131.5,10 L131.5,10 Z M133.5,12 L135.5,12 L135.5,14 L133.5,14 L133.5,12 L133.5,12 Z M135.5,14 L137.5,14 L137.5,16 L135.5,16 L135.5,14 L135.5,14 Z M137.5,16 L139.5,16 L139.5,18 L137.5,18 L137.5,16 L137.5,16 Z M139.5,18 L141.5,18 L141.5,20 L139.5,20 L139.5,18 L139.5,18 Z M141.5,16 L143.5,16 L143.5,18 L141.5,18 L141.5,16 L141.5,16 Z M143.5,14 L145.5,14 L145.5,16 L143.5,16 L143.5,14 L143.5,14 Z M145.5,12 L147.5,12 L147.5,14 L145.5,14 L145.5,12 L145.5,12 Z M147.5,10 L149.5,10 L149.5,12 L147.5,12 L147.5,10 L147.5,10 Z M149.5,8 L151.5,8 L151.5,10 L149.5,10 L149.5,8 L149.5,8 Z M149.5,6 L151.5,6 L151.5,8 L149.5,8 L149.5,6 L149.5,6 Z M149.5,4 L151.5,4 L151.5,6 L149.5,6 L149.5,4 L149.5,4 Z M147.5,2 L149.5,2 L149.5,4 L147.5,4 L147.5,2 L147.5,2 Z M145.5,0 L147.5,0 L147.5,2 L145.5,2 L145.5,0 L145.5,0 Z M143.5,0 L145.5,0 L145.5,2 L143.5,2 L143.5,0 L143.5,0 Z" id="heart-icon"></path>
                </g>
            </g>
        </g>
    </g>
</svg>