<?xml version="1.0" encoding="UTF-8"?>
<svg width="163px" height="37px" viewBox="0 0 163 37" version="1.1" xmlns="http://www.w3.org/2000/svg" xmlns:xlink="http://www.w3.org/1999/xlink">
    <!-- Generator: Sketch 43 (38999) - http://www.bohemiancoding.com/sketch -->
    <title>logo</title>
    <desc>Created with Sketch.</desc>
    <defs></defs>
    <g id="Symbols" stroke="none" stroke-width="1" fill="none" fill-rule="evenodd">
        <g id="header" transform="translate(-40.000000, -25.000000)" fill="#F38270">
            <g id="logo">
                <path d="M183.261683,48.2693902 C183.418095,47.6104233 183.59931,46.9245861 183.805328,46.2118762 C184.36033,44.2918666 185.072823,42.3568859 185.942828,40.4068762 C186.39283,39.3568709 186.902825,38.3218813 187.472828,37.3018762 C188.042831,36.2818711 188.642825,35.291881 189.272828,34.3318762 C188.612824,34.3918765 187.967831,34.4518759 187.337828,34.5118762 C186.707825,34.5718765 186.092831,34.6768754 185.492828,34.8268762 C185.252826,34.8868765 185.080328,34.8268771 184.975328,34.6468762 C184.870327,34.4668753 184.847827,34.2568774 184.907828,34.0168762 C184.967828,33.776875 185.102827,33.5443773 185.312828,33.3193762 C185.522829,33.0943751 185.807826,32.9668763 186.167828,32.9368762 C186.857831,32.8768759 187.562824,32.8243764 188.282828,32.7793762 C189.002831,32.734376 189.722824,32.6818765 190.442828,32.6218762 C191.252832,31.5418708 192.077823,30.5593806 192.917828,29.6743762 C193.757832,28.7893718 194.575324,28.0768789 195.370328,27.5368762 C196.165332,26.9968735 196.915324,26.6593769 197.620328,26.5243762 C198.325331,26.3893755 198.947825,26.5168742 199.487828,26.9068762 C199.87783,27.1768775 199.922829,27.7843715 199.622828,28.7293762 C199.322826,29.6743809 198.767832,30.8368693 197.957828,32.2168762 L202.187828,32.0368762 C202.57783,32.006876 202.772828,32.1718744 202.772828,32.5318762 C202.772828,32.891878 202.645329,33.2743742 202.390328,33.6793762 C202.135326,34.0843782 201.79033,34.4368747 201.355328,34.7368762 C200.920326,35.0368777 200.47783,35.1268768 200.027828,35.0068762 C199.697826,34.9468759 199.232831,34.8643767 198.632828,34.7593762 C198.032825,34.6543757 197.327832,34.5568766 196.517828,34.4668762 C195.287822,36.2668852 193.817836,38.1943659 192.107828,40.2493762 C190.397819,42.3043865 188.552838,44.2918666 186.572828,46.2118762 C186.332826,47.0818805 186.182828,47.8693727 186.122828,48.5743762 C186.062827,49.2793797 186.062827,49.8793737 186.122828,50.3743762 C186.182828,50.8693787 186.295327,51.2518748 186.460328,51.5218762 C186.625329,51.7918775 186.797827,51.941876 186.977828,51.9718762 C187.187829,52.0018763 187.525325,51.9118772 187.990328,51.7018762 C188.45533,51.4918751 188.957825,51.206878 189.497828,50.8468762 C190.03783,50.4868744 190.570325,50.0743785 191.095328,49.6093762 C191.62033,49.1443739 192.062826,48.6868784 192.422828,48.2368762 C192.782829,47.7868739 193.120326,47.479377 193.435328,47.3143762 C193.750329,47.1493754 194.005327,47.0968759 194.200328,47.1568762 C194.395329,47.2168765 194.492828,47.3818748 194.492828,47.6518762 C194.492828,47.9218775 194.342829,48.2968738 194.042828,48.7768762 C193.742826,49.2568786 193.195332,49.9243719 192.400328,50.7793762 C191.605324,51.6343805 190.712833,52.4893719 189.722828,53.3443762 C188.732823,54.1993805 187.735333,54.941873 186.730328,55.5718762 C185.725323,56.2018793 184.862831,56.5168762 184.142828,56.5168762 C183.422824,56.5168762 182.950329,56.0443809 182.725328,55.0993762 C182.504489,54.1718517 182.485953,52.9625647 182.669722,51.47148 C182.055502,52.1182787 181.391541,52.7650738 180.677828,53.4118762 C179.717823,54.2818805 178.735333,55.039373 177.730328,55.6843762 C176.725323,56.3293794 175.847831,56.6518762 175.097828,56.6518762 C174.407824,56.6518762 173.942829,56.2468802 173.702828,55.4368762 C173.462826,54.6268721 173.522826,53.5468829 173.882828,52.1968762 C174.242829,50.8468694 174.925323,49.286885 175.930328,47.5168762 C176.935333,45.7468673 178.322819,43.8868859 180.092828,41.9368762 C179.702826,41.9968765 179.31283,42.0118763 178.922828,41.9818762 C178.532826,41.951876 178.12783,41.8918766 177.707828,41.8018762 C177.197825,42.7918811 176.567831,43.9168699 175.817828,45.1768762 C175.067824,46.4368825 174.242832,47.6368705 173.342828,48.7768762 C173.162827,49.1068778 172.85533,49.594373 172.420328,50.2393762 C171.985326,50.8843794 171.460331,51.5743725 170.845328,52.3093762 C170.230325,53.0443799 169.525332,53.7568727 168.730328,54.4468762 C167.935324,55.1368796 167.080332,55.7068739 166.165328,56.1568762 C165.250323,56.6068784 164.290333,56.8768757 163.285328,56.9668762 C162.280323,57.0568766 161.237833,56.8468787 160.157828,56.3368762 C159.287823,55.9168741 158.672829,55.2493808 158.312828,54.3343762 C157.966745,53.4547493 157.81474,52.457305 157.85681,51.3420155 C157.193663,52.0094694 156.475673,52.6769189 155.702828,53.3443762 C154.712823,54.1993805 153.715333,54.941873 152.710328,55.5718762 C151.705323,56.2018793 150.842831,56.5168762 150.122828,56.5168762 C149.402824,56.5168762 148.930329,56.0443809 148.705328,55.0993762 C148.482385,54.1630177 148.465619,52.9395039 148.655028,51.4287986 C148.326596,51.7778157 147.975863,52.1388407 147.602828,52.5118762 C146.822824,53.2918801 145.982832,54.0568724 145.082828,54.8068762 C144.182823,55.5568799 143.290332,56.1868736 142.405328,56.6968762 C141.520323,57.2068787 140.672832,57.5518753 139.862828,57.7318762 C139.052824,57.9118771 138.362831,57.7918783 137.792828,57.3718762 C137.372826,57.0718747 137.140328,56.636879 137.095328,56.0668762 C137.050327,55.4968733 137.155326,54.8218801 137.410328,54.0418762 C137.665329,53.2618723 138.025325,52.3993809 138.490328,51.4543762 C138.95533,50.5093715 139.502825,49.5118814 140.132828,48.4618762 C138.152818,48.7018774 136.150338,48.941875 134.125328,49.1818762 C132.100318,49.4218774 130.172837,49.6318753 128.342828,49.8118762 C127.502823,50.9518819 126.782831,52.0693707 126.182828,53.1643762 C125.582825,54.2593817 125.125329,55.2793715 124.810328,56.2243762 C124.495326,57.1693809 124.337828,58.0243724 124.337828,58.7893762 C124.337828,59.55438 124.517826,60.1918736 124.877828,60.7018762 C122.777817,61.1818786 121.232833,61.2568778 120.242828,60.9268762 C119.252823,60.5968745 118.727828,59.951881 118.667828,58.9918762 C118.607827,58.0318714 118.982824,56.8093836 119.792828,55.3243762 C120.602832,53.8393688 121.75782,52.1818853 123.257828,50.3518762 L118.352828,50.8018762 C117.764937,50.8606652 117.450662,50.6962482 117.409993,50.3086202 C117.275855,50.4586568 117.132634,50.6155754 116.980328,50.7793762 C116.185324,51.6343805 115.292833,52.4893719 114.302828,53.3443762 C113.312823,54.1993805 112.315333,54.941873 111.310328,55.5718762 C110.305323,56.2018793 109.442831,56.5168762 108.722828,56.5168762 C108.002824,56.5168762 107.530329,56.0443809 107.305328,55.0993762 C107.11506,54.3002507 107.074962,53.2919731 107.185034,52.0745207 C107.121167,52.1522885 107.056264,52.2305737 106.990328,52.3093762 C106.375325,53.0443799 105.670332,53.7568727 104.875328,54.4468762 C104.080324,55.1368796 103.225332,55.7068739 102.310328,56.1568762 C101.395323,56.6068784 100.435333,56.8768757 99.4303277,56.9668762 C98.4253227,57.0568766 97.3828331,56.8468787 96.3028277,56.3368762 C95.4328233,55.9168741 94.8178295,55.2493808 94.4578277,54.3343762 C94.1718247,53.607452 94.0183651,52.8000658 93.9974465,51.9122019 C93.8913934,52.0431 93.7823538,52.1754913 93.6703277,52.3093762 C93.0553246,53.0443799 92.3503317,53.7568727 91.5553277,54.4468762 C90.7603237,55.1368796 89.9053323,55.7068739 88.9903277,56.1568762 C88.0753231,56.6068784 87.1153327,56.8768757 86.1103277,56.9668762 C85.1053227,57.0568766 84.0628331,56.8468787 82.9828277,56.3368762 C82.1128233,55.9168741 81.4978295,55.2493808 81.1378277,54.3343762 C80.7778259,53.4193716 80.6278274,52.376882 80.6878277,51.2068762 C80.6900763,51.1630275 80.6925883,51.1190841 80.6953637,51.0750459 C80.4667377,51.2367596 80.2317261,51.3857027 79.9903277,51.5218762 C79.4053248,51.8518778 78.8128307,52.0693757 78.2128277,52.1743762 C77.6128247,52.2793767 77.0728301,52.2118774 76.5928277,51.9718762 C76.262826,51.8218754 76.0003287,51.5743779 75.8053277,51.2293762 C75.6103267,50.8843745 75.4528283,50.5018783 75.3328277,50.0818762 C74.6128241,51.0118808 73.8853314,51.8668723 73.1503277,52.6468762 C72.415324,53.4268801 71.7103311,54.1018733 71.0353277,54.6718762 C70.3603243,55.241879 69.7228307,55.6618748 69.1228277,55.9318762 C68.5228247,56.2018775 67.9828301,56.2768768 67.5028277,56.1568762 C67.0528254,56.0368756 66.700329,55.7293787 66.4453277,55.2343762 C66.1903264,54.7393737 66.032828,54.1018801 65.9728277,53.3218762 C65.0128229,54.281881 64.097832,55.0318735 63.2278277,55.5718762 C62.3578233,56.1118789 61.592831,56.3068769 60.9328277,56.1568762 C60.4228251,56.0068754 60.032829,55.6018795 59.7628277,54.9418762 C59.4928263,54.2818729 59.3653276,53.4568811 59.3803277,52.4668762 C59.3953278,51.4768712 59.5303264,50.3818822 59.7853277,49.1818762 C60.040329,47.9818702 60.4228251,46.796882 60.9328277,45.6268762 C61.0074165,45.4557606 61.0847323,45.2857684 61.1647752,45.1168994 C60.6332723,45.1393267 60.1059579,45.1743189 59.5828277,45.2218762 L59.5828277,45.6268762 C59.5828277,45.7468768 59.552828,45.8818754 59.4928277,46.0318762 C59.2528265,47.2618823 58.6528325,48.4768702 57.6928277,49.6768762 C56.7328229,50.8768822 55.5853344,51.9868711 54.2503277,53.0068762 C52.915321,54.0268813 51.4828353,54.9193724 49.9528277,55.6843762 C48.42282,56.44938 46.9828344,57.0118744 45.6328277,57.3718762 C44.2828209,57.731878 43.1053327,57.8518768 42.1003277,57.7318762 C41.0953227,57.6118756 40.457829,57.1918798 40.1878277,56.4718762 C39.8278259,55.5118714 39.9853243,54.4318822 40.6603277,53.2318762 C41.3353311,52.0318702 42.3703207,50.854382 43.7653277,49.6993762 C45.1603347,48.5443704 46.8103182,47.4793811 48.7153277,46.5043762 C50.6203372,45.5293713 52.6078173,44.7868787 54.6778277,44.2768762 C54.5878272,43.5268724 54.3778293,42.8068796 54.0478277,42.1168762 C53.717826,41.4268727 53.3053302,40.8268787 52.8103277,40.3168762 C52.3153252,39.8068736 51.7453309,39.4393773 51.1003277,39.2143762 C50.4553245,38.9893751 49.7878311,38.9818751 49.0978277,39.1918762 C47.6878206,39.6118783 46.6003315,39.844376 45.8353277,39.8893762 C45.0703239,39.9343764 44.6203284,39.7618781 44.4853277,39.3718762 C44.350327,38.9818742 44.5078254,38.3668804 44.9578277,37.5268762 C45.4078299,36.686872 46.1578224,35.5768831 47.2078277,34.1968762 C47.9578314,33.1768711 48.9178218,32.1343815 50.0878277,31.0693762 C51.2578335,30.0043709 52.5178209,29.0293806 53.8678277,28.1443762 C55.2178344,27.2593718 56.5978206,26.539379 58.0078277,25.9843762 C59.4178347,25.4293734 60.7528214,25.1518762 62.0128277,25.1518762 C63.0028326,25.1518762 63.767825,25.4218735 64.3078277,25.9618762 C64.8478304,26.5018789 65.185327,27.1468724 65.3203277,27.8968762 C65.4553284,28.6468799 65.387829,29.4268721 65.1178277,30.2368762 C64.8478263,31.0468802 64.4128307,31.7218735 63.8128277,32.2618762 C63.6628269,31.5118724 63.3328302,30.9718778 62.8228277,30.6418762 C62.3128251,30.3118745 61.727831,30.1243764 61.0678277,30.0793762 C60.4078244,30.034376 59.7553309,30.0868754 59.1103277,30.2368762 C58.4653245,30.3868769 57.9478296,30.5518753 57.5578277,30.7318762 C56.8978244,31.0618778 56.1853315,31.444374 55.4203277,31.8793762 C54.6553239,32.3143784 53.8828316,32.7943736 53.1028277,33.3193762 C52.3228238,33.8443788 51.5728313,34.3918733 50.8528277,34.9618762 C50.1328241,35.531879 49.5028304,36.0868735 48.9628277,36.6268762 C48.2728242,37.3168796 47.9128278,37.7068757 47.8828277,37.7968762 C47.8528275,37.8868766 48.2278238,37.8118774 49.0078277,37.5718762 C51.9178422,36.7018718 54.2878185,36.8218706 56.1178277,37.9318762 C57.9478368,39.0418817 59.0728256,40.916863 59.4928277,43.5568762 C60.0328304,43.4968759 60.572825,43.4668762 61.1128277,43.4668762 C61.423979,43.4668762 61.7351276,43.4718563 62.0462767,43.4818166 C62.2950651,43.0721065 62.5614151,42.669627 62.8453277,42.2743762 C63.6103315,41.2093709 64.4878227,40.3168798 65.4778277,39.5968762 C66.137831,39.1168738 66.737825,38.794377 67.2778277,38.6293762 C67.8178304,38.4643754 68.2303263,38.4118759 68.5153277,38.4718762 C68.8003291,38.5318765 68.9278278,38.6893749 68.8978277,38.9443762 C68.8678275,39.1993775 68.6128301,39.5218742 68.1328277,39.9118762 C66.992822,40.8118807 66.0553314,41.8918699 65.3203277,43.1518762 C64.585324,44.4118825 64.0453294,45.6193704 63.7003277,46.7743762 C63.355326,47.929382 63.1978275,48.926872 63.2278277,49.7668762 C63.2578278,50.6068804 63.4528259,51.0868756 63.8128277,51.2068762 C64.3828305,51.3568769 65.1778226,50.9218813 66.1978277,49.9018762 C66.3478284,49.0918721 66.5728262,48.2443806 66.8728277,47.3593762 C67.1728292,46.4743718 67.5478254,45.6043805 67.9978277,44.7493762 C68.4478299,43.8943719 68.9578248,43.08438 69.5278277,42.3193762 C70.0978305,41.5543724 70.7428241,40.886879 71.4628277,40.3168762 C72.1828313,39.7468733 72.8053251,39.3343775 73.3303277,39.0793762 C73.8553303,38.8243749 74.2753261,38.711876 74.5903277,38.7418762 C74.9053293,38.7718763 75.1078272,38.9218748 75.1978277,39.1918762 C75.2878281,39.4618775 75.2428286,39.8218739 75.0628277,40.2718762 C74.5528251,41.5018823 73.8778319,42.7093703 73.0378277,43.8943762 C72.1978235,45.0793821 71.147834,46.5268676 69.8878277,48.2368762 C69.8278274,48.9268796 69.8278274,49.5718732 69.8878277,50.1718762 C69.947828,50.7718792 70.0978265,51.1168757 70.3378277,51.2068762 C70.6978295,51.3268768 71.1853246,51.1693784 71.8003277,50.7343762 C72.4153308,50.299374 73.0678242,49.6318807 73.7578277,48.7318762 C74.4478311,47.8318717 75.1303243,46.699383 75.8053277,45.3343762 C76.4803311,43.9693694 77.0728251,42.401885 77.5828277,40.6318762 C77.7328284,40.0618733 78.0703251,39.6118778 78.5953277,39.2818762 C79.1203303,38.9518745 79.6603249,38.7268768 80.2153277,38.6068762 C80.7703305,38.4868756 81.2503257,38.4643758 81.6553277,38.5393762 C82.0603297,38.6143766 82.232828,38.7418753 82.1728277,38.9218762 C81.7828257,39.8218807 81.2653309,40.8643703 80.6203277,42.0493762 C79.9753245,43.2343821 79.2478317,44.4718697 78.4378277,45.7618762 C78.1678263,46.3018789 77.9953281,46.8718732 77.9203277,47.4718762 C77.8453273,48.0718792 78.0328254,48.5668742 78.4828277,48.9568762 C78.8428295,49.2568777 79.3078248,49.3318769 79.8778277,49.1818762 C80.4226029,49.0385143 80.8577584,48.7444382 81.1833061,48.2996396 C81.2575405,48.0341372 81.339881,47.7657162 81.4303277,47.4943762 C81.8653299,46.1893697 82.4278242,44.951882 83.1178277,43.7818762 C83.777831,42.6718706 84.5428233,41.6593808 85.4128277,40.7443762 C86.282832,39.8293716 87.190323,39.1168787 88.1353277,38.6068762 C89.0803324,38.0968736 90.0328229,37.8268763 90.9928277,37.7968762 C91.9528325,37.766876 92.8678233,38.066873 93.7378277,38.6968762 C94.3678308,39.1468784 94.8178263,39.7243727 95.0878277,40.4293762 C95.357829,41.1343797 95.3953287,41.8843722 95.2003277,42.6793762 C95.0053267,43.4743802 94.5553312,44.2618723 93.8503277,45.0418762 C93.1453242,45.8218801 92.1478341,46.526873 90.8578277,47.1568762 C90.2878248,47.4268775 89.7028307,47.6143757 89.1028277,47.7193762 C88.5028247,47.8243767 87.9328304,47.8843761 87.3928277,47.8993762 C86.852825,47.9143763 86.35033,47.8918765 85.8853277,47.8318762 C85.4203254,47.7718759 85.0228293,47.7118765 84.6928277,47.6518762 C84.6028272,48.1318786 84.5128281,48.6493734 84.4228277,49.2043762 C84.3328272,49.759379 84.2878277,50.2918736 84.2878277,50.8018762 C84.2878277,51.3118787 84.355327,51.7693742 84.4903277,52.1743762 C84.6253284,52.5793782 84.8728259,52.8718753 85.2328277,53.0518762 C86.0128316,53.4718783 86.8828229,53.5393776 87.8428277,53.2543762 C88.8028325,52.9693748 89.7253233,52.5343791 90.6103277,51.9493762 C91.4953321,51.3643733 92.2978241,50.7118798 93.0178277,49.9918762 C93.7023917,49.3073122 94.1971121,48.744794 94.5020019,48.3043065 C94.5765758,48.0372828 94.659351,47.7673061 94.7503277,47.4943762 C95.1853299,46.1893697 95.7478242,44.951882 96.4378277,43.7818762 C97.097831,42.6718706 97.8628233,41.6593808 98.7328277,40.7443762 C99.602832,39.8293716 100.510323,39.1168787 101.455328,38.6068762 C102.400332,38.0968736 103.352823,37.8268763 104.312828,37.7968762 C105.272832,37.766876 106.187823,38.066873 107.057828,38.6968762 C107.687831,39.1468784 108.137826,39.7243727 108.407828,40.4293762 C108.677829,41.1343797 108.715329,41.8843722 108.520328,42.6793762 C108.325327,43.4743802 107.875331,44.2618723 107.170328,45.0418762 C106.465324,45.8218801 105.467834,46.526873 104.177828,47.1568762 C103.607825,47.4268775 103.022831,47.6143757 102.422828,47.7193762 C101.822825,47.8243767 101.25283,47.8843761 100.712828,47.8993762 C100.172825,47.9143763 99.67033,47.8918765 99.2053277,47.8318762 C98.7403254,47.7718759 98.3428293,47.7118765 98.0128277,47.6518762 C97.9228272,48.1318786 97.8328281,48.6493734 97.7428277,49.2043762 C97.6528272,49.759379 97.6078277,50.2918736 97.6078277,50.8018762 C97.6078277,51.3118787 97.675327,51.7693742 97.8103277,52.1743762 C97.9453284,52.5793782 98.1928259,52.8718753 98.5528277,53.0518762 C99.3328316,53.4718783 100.202823,53.5393776 101.162828,53.2543762 C102.122832,52.9693748 103.045323,52.5343791 103.930328,51.9493762 C104.815332,51.3643733 105.617824,50.7118798 106.337828,49.9918762 C107.035575,49.294129 107.536096,48.7231735 107.839405,48.2789939 C107.996335,47.6170875 108.178309,46.9280491 108.385328,46.2118762 C108.94033,44.2918666 109.652823,42.3568859 110.522828,40.4068762 C110.97283,39.3568709 111.482825,38.3218813 112.052828,37.3018762 C112.622831,36.2818711 113.222825,35.291881 113.852828,34.3318762 C113.192824,34.3918765 112.547831,34.4518759 111.917828,34.5118762 C111.287825,34.5718765 110.672831,34.6768754 110.072828,34.8268762 C109.832826,34.8868765 109.660328,34.8268771 109.555328,34.6468762 C109.450327,34.4668753 109.427827,34.2568774 109.487828,34.0168762 C109.547828,33.776875 109.682827,33.5443773 109.892828,33.3193762 C110.102829,33.0943751 110.387826,32.9668763 110.747828,32.9368762 C111.437831,32.8768759 112.142824,32.8243764 112.862828,32.7793762 C113.582831,32.734376 114.302824,32.6818765 115.022828,32.6218762 C115.832832,31.5418708 116.657823,30.5593806 117.497828,29.6743762 C118.337832,28.7893718 119.155324,28.0768789 119.950328,27.5368762 C120.745332,26.9968735 121.495324,26.6593769 122.200328,26.5243762 C122.905331,26.3893755 123.527825,26.5168742 124.067828,26.9068762 C124.45783,27.1768775 124.502829,27.7843715 124.202828,28.7293762 C123.902826,29.6743809 123.347832,30.8368693 122.537828,32.2168762 L126.767828,32.0368762 C127.15783,32.006876 127.352828,32.1718744 127.352828,32.5318762 C127.352828,32.891878 127.225329,33.2743742 126.970328,33.6793762 C126.715326,34.0843782 126.37033,34.4368747 125.935328,34.7368762 C125.500326,35.0368777 125.05783,35.1268768 124.607828,35.0068762 C124.277826,34.9468759 123.812831,34.8643767 123.212828,34.7593762 C122.612825,34.6543757 121.907832,34.5568766 121.097828,34.4668762 C119.867822,36.2668852 118.397836,38.1943659 116.687828,40.2493762 C114.977819,42.3043865 113.132838,44.2918666 111.152828,46.2118762 C110.912826,47.0818805 110.762828,47.8693727 110.702828,48.5743762 C110.642827,49.2793797 110.642827,49.8793737 110.702828,50.3743762 C110.762828,50.8693787 110.875327,51.2518748 111.040328,51.5218762 C111.205329,51.7918775 111.377827,51.941876 111.557828,51.9718762 C111.767829,52.0018763 112.105325,51.9118772 112.570328,51.7018762 C113.03533,51.4918751 113.537825,51.206878 114.077828,50.8468762 C114.61783,50.4868744 115.150325,50.0743785 115.675328,49.6093762 C116.20033,49.1443739 116.642826,48.6868784 117.002828,48.2368762 C117.362829,47.7868739 117.700326,47.479377 118.015328,47.3143762 C118.330329,47.1493754 118.585327,47.0968759 118.780328,47.1568762 C118.975329,47.2168765 119.072828,47.3818748 119.072828,47.6518762 C119.072828,47.6875414 119.07021,47.7250386 119.064976,47.7643678 C119.161465,47.6951633 119.261582,47.6276661 119.365328,47.5618762 C119.980331,47.1718742 120.647824,47.0218757 121.367828,47.1118762 C121.78783,47.1718765 122.380324,47.224376 123.145328,47.2693762 C123.910332,47.3143764 124.802823,47.351876 125.822828,47.3818762 L128.702828,44.4568762 C130.532837,42.6868673 132.437818,40.924385 134.417828,39.1693762 C136.397838,37.4143674 138.362818,35.7493841 140.312828,34.1743762 C142.262837,32.5993683 144.152819,31.1743826 145.982828,29.8993762 C147.812837,28.6243698 149.47782,27.5818802 150.977828,26.7718762 C152.477835,25.9618721 153.760322,25.4218775 154.825328,25.1518762 C155.890333,24.8818748 156.647825,24.9718739 157.097828,25.4218762 C157.48783,25.8118781 157.540329,26.4718715 157.255328,27.4018762 C156.970326,28.3318808 156.460331,29.41937 155.725328,30.6643762 C154.990324,31.9093824 154.105333,33.2668688 153.070328,34.7368762 C152.035323,36.2068835 150.970333,37.6993686 149.875328,39.2143762 C148.780322,40.7293838 147.715333,42.2218688 146.680328,43.6918762 C145.645323,45.1618835 144.775331,46.5043701 144.070328,47.7193762 C143.365324,48.9343823 142.885329,49.9768718 142.630328,50.8468762 C142.375326,51.7168805 142.472825,52.3168745 142.922828,52.6468762 C143.102829,52.7968769 143.455325,52.7518774 143.980328,52.5118762 C144.50533,52.271875 145.090324,51.9268784 145.735328,51.4768762 C146.380331,51.0268739 147.025324,50.5093791 147.670328,49.9243762 C148.308398,49.345661 148.836366,48.7889731 149.254246,48.2542961 C149.41333,47.5999519 149.597857,46.9191461 149.807828,46.2118762 C150.377831,44.2918666 151.097823,42.3568859 151.967828,40.4068762 C152.537831,39.0868696 153.182824,37.7893826 153.902828,36.5143762 C154.622831,35.2393698 155.380324,34.0318819 156.175328,32.8918762 C156.970332,31.7518705 157.780324,30.7243808 158.605328,29.8093762 C159.430332,28.8943716 160.232824,28.159379 161.012828,27.6043762 C161.792832,27.0493734 162.535324,26.6968769 163.240328,26.5468762 C163.945331,26.3968754 164.582825,26.5168742 165.152828,26.9068762 C165.902831,27.4468789 166.04533,28.4068693 165.580328,29.7868762 C165.115325,31.1668831 164.245334,32.7868669 162.970328,34.6468762 C161.695321,36.5068855 160.112837,38.5318652 158.222828,40.7218762 C156.332818,42.9118871 154.352838,45.0868654 152.282828,47.2468762 C151.952826,48.7768838 151.892827,49.9318723 152.102828,50.7118762 C152.312829,51.4918801 152.612826,51.9118759 153.002828,51.9718762 C153.212829,52.0018763 153.542825,51.9118772 153.992828,51.7018762 C154.44283,51.4918751 154.937825,51.206878 155.477828,50.8468762 C156.01783,50.4868744 156.550325,50.0743785 157.075328,49.6093762 C157.580436,49.1619945 158.009172,48.7215617 158.361547,48.2880653 C158.434935,48.0263368 158.516195,47.7617739 158.605328,47.4943762 C159.04033,46.1893697 159.602824,44.951882 160.292828,43.7818762 C160.952831,42.6718706 161.717823,41.6593808 162.587828,40.7443762 C163.457832,39.8293716 164.365323,39.1168787 165.310328,38.6068762 C166.255332,38.0968736 167.207823,37.8268763 168.167828,37.7968762 C169.127832,37.766876 170.042823,38.066873 170.912828,38.6968762 C171.542831,39.1468784 171.992826,39.7243727 172.262828,40.4293762 C172.532829,41.1343797 172.570329,41.8843722 172.375328,42.6793762 C172.180327,43.4743802 171.730331,44.2618723 171.025328,45.0418762 C170.320324,45.8218801 169.322834,46.526873 168.032828,47.1568762 C167.462825,47.4268775 166.877831,47.6143757 166.277828,47.7193762 C165.677825,47.8243767 165.10783,47.8843761 164.567828,47.8993762 C164.027825,47.9143763 163.52533,47.8918765 163.060328,47.8318762 C162.595325,47.7718759 162.197829,47.7118765 161.867828,47.6518762 C161.777827,48.1318786 161.687828,48.6493734 161.597828,49.2043762 C161.507827,49.759379 161.462828,50.2918736 161.462828,50.8018762 C161.462828,51.3118787 161.530327,51.7693742 161.665328,52.1743762 C161.800328,52.5793782 162.047826,52.8718753 162.407828,53.0518762 C163.187832,53.4718783 164.057823,53.5393776 165.017828,53.2543762 C165.977832,52.9693748 166.900323,52.5343791 167.785328,51.9493762 C168.670332,51.3643733 169.472824,50.7118798 170.192828,49.9918762 C170.736987,49.4477166 171.161191,48.9806736 171.465446,48.5907394 C171.535897,48.4761949 171.621691,48.3582406 171.722828,48.2368762 C171.913124,47.9514315 172.103419,47.7172899 172.293714,47.5344489 C173.100164,46.5161982 173.802364,45.5128473 174.400328,44.5243762 C175.135331,43.3093701 175.727825,42.2368808 176.177828,41.3068762 C175.337823,40.8568739 174.872828,40.2418801 174.782828,39.4618762 C174.692827,38.6818723 174.820326,37.9393797 175.165328,37.2343762 C175.510329,36.5293727 176.005324,35.9593784 176.650328,35.5243762 C177.295331,35.089374 177.932825,34.991875 178.562828,35.2318762 C179.01283,35.3818769 179.327827,35.6068747 179.507828,35.9068762 C179.687829,36.2068777 179.777828,36.5443743 179.777828,36.9193762 C179.777828,37.2943781 179.702828,37.6918741 179.552828,38.1118762 C179.402827,38.5318783 179.222829,38.9368742 179.012828,39.3268762 C179.192829,39.5368772 179.425326,39.656876 179.710328,39.6868762 C179.995329,39.7168763 180.295326,39.7093764 180.610328,39.6643762 C180.925329,39.619376 181.232826,39.5368768 181.532828,39.4168762 C181.832829,39.2968756 182.072827,39.1918766 182.252828,39.1018762 C182.342828,39.071876 182.477827,39.1018757 182.657828,39.1918762 C182.837829,39.2818766 183.010327,39.4018754 183.175328,39.5518762 C183.340329,39.7018769 183.467827,39.8593754 183.557828,40.0243762 C183.647828,40.189377 183.647828,40.3168757 183.557828,40.4068762 C183.137826,40.8268783 182.68783,41.3743728 182.207828,42.0493762 C181.727825,42.7243796 181.25533,43.4518723 180.790328,44.2318762 C180.325325,45.0118801 179.89783,45.7993722 179.507828,46.5943762 C179.117826,47.3893802 178.787829,48.1318727 178.517828,48.8218762 C178.247826,49.5118796 178.067828,50.1118736 177.977828,50.6218762 C177.887827,51.1318787 177.932827,51.4768753 178.112828,51.6568762 C178.262828,51.8068769 178.547826,51.799377 178.967828,51.6343762 C179.38783,51.4693754 179.860325,51.206878 180.385328,50.8468762 C180.91033,50.4868744 181.435325,50.0743785 181.960328,49.6093762 C182.472691,49.1555687 182.906472,48.7089109 183.261683,48.2693902 Z M44.8228277,53.7718762 C45.0628289,54.0718777 45.452825,54.2293761 45.9928277,54.2443762 C46.5328304,54.2593763 47.1403243,54.1468774 47.8153277,53.9068762 C48.4903311,53.666875 49.2028239,53.3143785 49.9528277,52.8493762 C50.7028314,52.3843739 51.4078244,51.8143796 52.0678277,51.1393762 C52.727831,50.4643728 53.3053252,49.7068804 53.8003277,48.8668762 C54.2953302,48.026872 54.6478266,47.0968813 54.8578277,46.0768762 C52.9378181,46.6168789 51.3103344,47.2843722 49.9753277,48.0793762 C48.640321,48.8743802 47.5678317,49.6693722 46.7578277,50.4643762 C45.9478236,51.2593802 45.3853293,51.9643731 45.0703277,52.5793762 C44.7553261,53.1943793 44.6728269,53.5918753 44.8228277,53.7718762 Z M91.2628277,41.5318762 C90.9028259,41.2618748 90.4453305,41.1868756 89.8903277,41.3068762 C89.3353249,41.4268768 88.7653306,41.6968741 88.1803277,42.1168762 C87.5953248,42.5368783 87.0403303,43.0918727 86.5153277,43.7818762 C85.9903251,44.4718796 85.592829,45.236872 85.3228277,46.0768762 C85.6228292,46.1068763 86.0653248,46.1218762 86.6503277,46.1218762 C87.2353306,46.1218762 87.9628233,45.9568778 88.8328277,45.6268762 C89.6728319,45.2968745 90.3178254,44.9368781 90.7678277,44.5468762 C91.2178299,44.1568742 91.5253269,43.7668781 91.6903277,43.3768762 C91.8553285,42.9868742 91.8853282,42.6268778 91.7803277,42.2968762 C91.6753272,41.9668745 91.5028289,41.7118771 91.2628277,41.5318762 Z M104.582828,41.5318762 C104.222826,41.2618748 103.76533,41.1868756 103.210328,41.3068762 C102.655325,41.4268768 102.085331,41.6968741 101.500328,42.1168762 C100.915325,42.5368783 100.36033,43.0918727 99.8353277,43.7818762 C99.3103251,44.4718796 98.912829,45.236872 98.6428277,46.0768762 C98.9428292,46.1068763 99.3853248,46.1218762 99.9703277,46.1218762 C100.555331,46.1218762 101.282823,45.9568778 102.152828,45.6268762 C102.992832,45.2968745 103.637825,44.9368781 104.087828,44.5468762 C104.53783,44.1568742 104.845327,43.7668781 105.010328,43.3768762 C105.175329,42.9868742 105.205328,42.6268778 105.100328,42.2968762 C104.995327,41.9668745 104.822829,41.7118771 104.582828,41.5318762 Z M112.907828,40.7668762 C112.757827,41.0968778 112.630328,41.3668751 112.525328,41.5768762 L112.232828,42.1618762 C112.142827,42.3418771 112.060328,42.5368751 111.985328,42.7468762 C111.910327,42.9568772 111.827828,43.2118747 111.737828,43.5118762 C113.237835,41.8618679 114.602822,40.2418841 115.832828,38.6518762 C117.062834,37.0618682 118.097823,35.6218826 118.937828,34.3318762 C118.577826,34.301876 118.20283,34.2793763 117.812828,34.2643762 C117.422826,34.2493761 117.03283,34.2418762 116.642828,34.2418762 C115.322821,36.011885 114.077834,38.1868633 112.907828,40.7668762 Z M120.827828,30.5518762 C120.047824,30.7318771 119.147833,31.3618708 118.127828,32.4418762 C118.487829,32.411876 118.825326,32.3893763 119.140328,32.3743762 C119.455329,32.3593761 119.777826,32.3518762 120.107828,32.3518762 C120.317829,31.9918744 120.475327,31.6618777 120.580328,31.3618762 C120.685328,31.0618747 120.767827,30.7918774 120.827828,30.5518762 Z M130.277828,47.3818762 C132.077837,47.3218759 133.945318,47.209377 135.880328,47.0443762 C137.815337,46.8793754 139.697819,46.616878 141.527828,46.2568762 C142.637833,44.5168675 143.807822,42.769385 145.037828,41.0143762 C146.267834,39.2593674 147.362823,37.6468835 148.322828,36.1768762 C149.282832,34.7068688 150.017825,33.4543814 150.527828,32.4193762 C151.03783,31.384371 151.127829,30.7168777 150.797828,30.4168762 C150.527826,30.176875 150.062831,30.1918748 149.402828,30.4618762 C148.742824,30.7318775 147.947832,31.181873 147.017828,31.8118762 C146.087823,32.4418793 145.052833,33.2293715 143.912828,34.1743762 C142.772822,35.1193809 141.595334,36.1393707 140.380328,37.2343762 C139.165322,38.3293817 137.942834,39.4768702 136.712828,40.6768762 C135.482822,41.8768822 134.297833,43.0468705 133.157828,44.1868762 C132.647825,44.7268789 132.15283,45.2593736 131.672828,45.7843762 C131.192825,46.3093788 130.72783,46.8418735 130.277828,47.3818762 Z M154.307828,40.7668762 C154.007826,41.4268795 153.737829,42.0643731 153.497828,42.6793762 C153.257826,43.2943793 153.062828,43.9018732 152.912828,44.5018762 C153.992833,43.2118697 155.080322,41.8918829 156.175328,40.5418762 C157.270333,39.1918694 158.245323,37.8868825 159.100328,36.6268762 C159.955332,35.3668699 160.645325,34.1818817 161.170328,33.0718762 C161.69533,31.9618706 161.942828,30.9718805 161.912828,30.1018762 C161.372825,30.2218768 160.795331,30.5818732 160.180328,31.1818762 C159.565325,31.7818792 158.927831,32.5543715 158.267828,33.4993762 C157.607824,34.4443809 156.940331,35.53937 156.265328,36.7843762 C155.590324,38.0293824 154.937831,39.3568691 154.307828,40.7668762 Z M168.437828,41.5318762 C168.077826,41.2618748 167.62033,41.1868756 167.065328,41.3068762 C166.510325,41.4268768 165.940331,41.6968741 165.355328,42.1168762 C164.770325,42.5368783 164.21533,43.0918727 163.690328,43.7818762 C163.165325,44.4718796 162.767829,45.236872 162.497828,46.0768762 C162.797829,46.1068763 163.240325,46.1218762 163.825328,46.1218762 C164.410331,46.1218762 165.137823,45.9568778 166.007828,45.6268762 C166.847832,45.2968745 167.492825,44.9368781 167.942828,44.5468762 C168.39283,44.1568742 168.700327,43.7668781 168.865328,43.3768762 C169.030329,42.9868742 169.060328,42.6268778 168.955328,42.2968762 C168.850327,41.9668745 168.677829,41.7118771 168.437828,41.5318762 Z M188.327828,40.7668762 C188.177827,41.0968778 188.050328,41.3668751 187.945328,41.5768762 L187.652828,42.1618762 C187.562827,42.3418771 187.480328,42.5368751 187.405328,42.7468762 C187.330327,42.9568772 187.247828,43.2118747 187.157828,43.5118762 C188.657835,41.8618679 190.022822,40.2418841 191.252828,38.6518762 C192.482834,37.0618682 193.517823,35.6218826 194.357828,34.3318762 C193.997826,34.301876 193.62283,34.2793763 193.232828,34.2643762 C192.842826,34.2493761 192.45283,34.2418762 192.062828,34.2418762 C190.742821,36.011885 189.497834,38.1868633 188.327828,40.7668762 Z M196.247828,30.5518762 C195.467824,30.7318771 194.567833,31.3618708 193.547828,32.4418762 C193.907829,32.411876 194.245326,32.3893763 194.560328,32.3743762 C194.875329,32.3593761 195.197826,32.3518762 195.527828,32.3518762 C195.737829,31.9918744 195.895327,31.6618777 196.000328,31.3618762 C196.105328,31.0618747 196.187827,30.7918774 196.247828,30.5518762 Z"></path>
            </g>
        </g>
    </g>
</svg>